PathFileType	4	(X/Y/Z)	C:\Users\WrightLab\Desktop\Jo\P4V121.trc
DataRate	CameraRate	NumFrames	NumMarkers	Units	OrigDataRate	OrigDataStartFrame	OrigNumFrames
100.00	100.00	       22	19	mm	100.00	276	       551
Frame#	Time	Headset_Front			Headset_Back			Headset_Left			Headset_Right			Left_Shoulder			Right_Shoulder			Sternum			C7			Left Elbow			Right Elbow			Left Wrist			Right Wrist			Left ASIS			Right ASIS			S2			Left Knee			Right Knee			Left Ankle			Right Ankle			
		X1	Y1	Z1	X2	Y2	Z2	X3	Y3	Z3	X4	Y4	Z4	X5	Y5	Z5	X6	Y6	Z6	X7	Y7	Z7	X8	Y8	Z8	X9	Y9	Z9	X10	Y10	Z10	X11	Y11	Z11	X12	Y12	Z12	X13	Y13	Z13	X14	Y14	Z14	X15	Y15	Z15	X16	Y16	Z16	X17	Y17	Z17	X18	Y18	Z18	X19	Y19	Z19	

276	2.750	-136.28778	1650.06189	598.64618							-274.78452	1681.88550	543.76556	-111.49400	1478.25269	322.55035	-366.72495	1506.81726	483.09943	-172.70930	1429.32642	492.41159	-267.95981	1522.51636	353.96780	-21.64727	1122.68127	227.92415	-500.19943	1181.14099	615.04144	30.98013	840.37866	346.78989	-381.48721	962.51697	791.93103	-95.76534	1002.27551	418.27045	-373.43756	1003.16315	607.69775	-315.31488	1017.80817	339.85883	26.96095	569.96765	507.96231	-458.69006	533.09155	489.87750	139.07892	75.90755	607.35974	-585.72150	87.06873	257.23407	
277	2.760										-265.48315	1679.86218	551.69836	-103.15921	1477.00793	331.27380	-358.57098	1504.88452	491.79239	-164.64589	1427.62512	501.91446	-259.77972	1520.93616	362.92484	-14.05580	1120.78772	236.77594	-490.94385	1178.74011	624.01959	37.66679	836.22052	351.73434	-372.05917	961.95660	801.64771	-84.57008	1001.68365	427.71335	-363.52539	1000.48053	616.57092	-305.62866	1016.24323	349.02927	37.40144	569.29907	519.46960	-450.99179	532.78149	497.53784	143.79277	71.90720	607.82867	-584.04877	90.75160	258.91629	
278	2.770	-121.22971	1647.63171	616.46344							-258.78369	1678.17932	560.51495	-94.88454	1474.62244	341.67441	-350.51062	1503.03735	500.93268	-156.34558	1426.72388	510.43350	-251.56789	1519.14368	371.66135	-5.92302	1118.59534	246.25449	-482.13559	1176.85876	632.65570	44.02980	832.34369	355.42072	-361.99554	961.38293	811.58649	-74.53660	1000.67627	437.36426	-351.60391	999.07953	627.73901	-295.38199	1014.38684	358.61438	47.58619	568.72968	531.06952	-443.39777	532.36078	505.40277	145.74413	69.69135	609.22070	-582.58673	95.55563	260.56464	
279	2.780	-113.91834	1646.12390	625.29614							-251.28703	1677.04700	569.06824	-86.66042	1473.88049	349.45575	-341.91406	1501.44604	509.41284	-147.69019	1425.33459	519.23944	-243.58421	1517.21851	380.36768	1.97106	1117.38098	255.43405	-472.76660	1174.81873	640.72650	50.94289	829.24042	362.31439	-352.58539	960.80017	821.01794	-63.81559	1000.21057	446.74646	-340.61453	996.97699	637.35480				57.22917	568.27509	542.62213	-434.14938	531.99036	513.42902	149.29134	67.94688	611.00146	-580.42200	100.57683	262.41052	
280	2.790	-106.41126	1644.93457	634.23663							-243.13419	1675.10449	577.48065	-79.05019	1472.62878	355.70270	-333.32156	1499.68347	518.30377	-138.89909	1424.66504	527.96674	-235.27713	1515.71252	388.81238	9.61954	1116.34302	264.58038	-463.92227	1172.46082	648.60614	57.06772	827.20142	368.06241	-343.12534	960.05847	829.70331	-53.07142	1000.38727	456.13458	-330.63959	995.06567	648.01007				67.35407	567.50146	553.29022	-426.29657	531.88190	522.39667	153.24802	66.78508	613.30939	-577.50781	105.92316	264.49448	
281	2.800	-98.21007	1643.94580	642.91815							-236.33469	1674.85742	586.12555	-70.47573	1471.99353	364.00058	-324.71286	1498.17529	526.94714	-129.72726	1423.91260	536.50610	-226.98106	1514.41516	397.31973	17.36459	1115.08752	273.63818	-454.55844	1170.73694	656.81799	65.04411	824.18030	374.20331	-333.49118	959.36810	838.67859	-42.32292	1000.44171	465.58066	-319.37265	993.17834	657.98889				78.49252	567.85449	563.39063	-417.43796	532.50818	532.03809	155.70152	66.30434	615.54639	-574.84485	111.99706	267.63745	
282	2.810	-90.43067	1643.66077	651.66235							-227.68213	1674.09082	594.43036	-61.26854	1470.98535	374.13214	-316.04260	1497.19702	535.37103	-120.38393	1424.05286	545.08850	-218.50833	1513.81738	405.79916	25.14980	1114.12866	282.19638	-445.22144	1168.84216	664.70654	71.79386	821.83301	380.93338	-324.53052	957.89832	846.82361	-31.13066	1000.64374	474.86230	-308.56689	992.68896	668.79993				89.80978	569.01373	570.78925	-408.16565	533.29938	542.08264	158.36076	65.71951	617.85126	-570.58630	118.62278	270.27579	
283	2.820	-82.70759	1644.02905	660.76831							-220.02618	1674.03467	603.10175	-52.14970	1471.74646	382.35031	-307.70834	1496.73059	543.90204	-111.65296	1424.72888	553.80481	-209.86617	1513.88123	414.37155	33.02389	1113.49963	292.26230	-436.01215	1167.86816	671.93396	79.87199	820.77277	386.75443	-315.29868	956.97711	855.55121	-20.04604	1001.49969	483.71439	-296.90100	991.49707	678.76923				101.84867	569.81104	578.90057	-397.40851	533.65723	553.60767	160.43625	65.15607	619.98718	-566.09637	126.17793	274.25565	
284	2.830	-75.97738	1644.16418	669.96191							-211.65733	1674.24255	611.38562	-43.68077	1472.21643	390.15582	-298.79132	1497.02051	552.56409	-101.84991	1425.60950	561.89160	-201.14001	1514.46875	423.19263	40.33157	1113.60938	300.24460	-426.60672	1166.72839	679.31836	86.50060	820.13330	394.59607	-307.78668	956.22876	863.23035	-10.17033	1003.54749	493.24542	-284.84756	991.99896	690.19684	-233.04555	1011.96436	419.10947	114.24816	570.73969	588.08801	-386.80731	534.44690	565.74481	161.94699	65.08297	621.47278	-560.12042	134.16606	278.29495	
285	2.840	-67.55957	1644.47229	678.83490							-204.25061	1674.46497	619.74860	-35.06174	1473.27075	398.08661	-290.43332	1497.24146	561.48810	-92.86662	1426.78430	570.73712	-192.39499	1515.08533	431.89154	48.01763	1114.10815	309.38608	-417.35434	1166.59839	686.66455	93.69048	819.93066	401.96719	-299.94705	955.08905	869.92999	0.01143	1005.48187	501.60419	-273.95267	991.06671	698.95978	-222.89572	1012.99774	428.68646	125.79019	572.06042	597.56799	-374.48825	534.91772	579.36041	163.71617	65.35240	622.40186	-553.35291	142.45561	283.59735	
286	2.850	-60.62051	1645.62048	688.25092							-197.55991	1674.78931	628.35754	-26.84521	1474.44763	404.87479	-281.11746	1498.07581	569.89795	-83.90090	1428.56287	578.59399	-183.58298	1516.06311	440.28326	56.08343	1114.98999	318.06140	-407.53458	1167.01526	694.34784	102.00268	820.50378	409.79660	-291.45526	953.46729	876.37073	9.69124	1007.72754	509.98764	-262.28867	991.53925	708.97437				137.02711	573.25751	606.61517	-361.97110	534.67969	594.47546	165.14491	65.62468	622.17200	-545.23352	151.90027	288.51581	
287	2.860	-54.20522	1647.35266	697.69348							-189.90292	1674.90576	636.88464	-18.40021	1475.84155	412.60986	-272.15274	1499.34863	578.58905	-74.47614	1430.62646	586.85596	-174.71909	1517.15833	448.65262	63.61402	1116.80139	326.39175	-397.77176	1167.23926	701.75000	109.59487	820.67609	417.13806	-284.20230	952.99500	882.71820	20.12836	1010.26904	518.59351	-251.18166	991.92725	719.10364	-203.89302	1014.65778	447.68076	147.57837	575.07294	615.94122	-348.03369	533.56378	610.63312	166.53418	66.15805	622.84454	-536.36334	162.26967	294.68243	
288	2.870	-46.88490	1648.68823	706.97943							-182.77718	1675.95251	645.43732	-9.92114	1477.99268	419.95633	-263.22415	1500.87854	587.57544	-64.51351	1432.15662	595.32300	-166.16656	1518.66626	457.54602	71.65720	1118.14880	334.52026	-388.38593	1168.86121	708.89185	119.03412	823.29962	427.44705	-276.65823	952.59875	889.25446	30.99359	1013.81171	527.09467	-240.27480	992.73346	728.70447				157.66251	577.13928	624.14014	-332.51608	530.67401	627.05542	167.96991	66.09267	623.96619	-525.35065	173.58971	301.14926	
289	2.880	-40.02326	1650.19385	716.58075							-175.31258	1676.73547	653.73462	-0.62120	1479.56494	429.93744	-254.11070	1502.97534	596.46606	-55.75574	1434.39990	604.18170	-157.00546	1520.31689	465.90570	79.73616	1120.19458	343.38556	-378.75803	1170.27954	716.32257	127.83118	825.65906	436.13672	-269.01996	951.54578	894.89905	41.08939	1016.17755	535.43854	-230.19606	992.88959	737.21082	-185.31331	1015.79883	468.04587	166.62598	578.86255	631.72522	-318.08987	527.59821	645.25610	168.65393	66.02241	625.08368	-513.39758	186.12465	309.29025	
290	2.890	-33.27989	1651.81152	726.00397							-168.44836	1677.64404	662.09717	7.49390	1481.56848	438.54379	-245.03883	1504.83105	605.08777	-46.88915	1436.20715	613.25873	-148.37164	1522.03552	474.90662	87.43275	1121.62805	351.60062	-369.31076	1171.47827	723.09930	137.70503	827.98230	445.24850	-261.73016	950.37695	900.43030	48.85228	1017.90210	543.74408	-222.34184	992.35138	744.23108				174.96349	578.57623	638.42377	-302.28186	523.91425	662.96417	168.48441	66.38517	625.39221	-499.67813	199.07225	317.90295	
291	2.900	-26.73649	1653.54028	735.45490							-161.82988	1678.19458	670.71179	16.01180	1483.32153	445.62677	-235.77219	1506.95032	613.76056	-38.02504	1438.51611	622.01208	-139.50597	1523.89246	483.56192	95.41611	1123.62402	359.13159	-360.74704	1173.31348	730.32825	146.28297	830.28656	454.93277	-254.44487	949.19501	905.87885	58.46301	1020.42163	552.02350	-213.32996	993.76233	753.74304	-168.40559	1017.46356	485.23273	182.05705	578.22632	643.95416	-286.98810	521.33801	681.60480	168.38954	67.16261	624.91138	-484.49323	211.99123	328.51990	
292	2.910	-20.22271	1655.76025	745.33960							-154.59537	1678.83435	679.21033	25.46801	1485.58789	456.08945	-227.33353	1509.29333	622.73163	-29.10039	1440.43518	630.89502	-130.75873	1525.79932	492.52789	103.95594	1125.08972	367.15021	-351.57156	1174.73303	737.06812	156.49007	833.35980	464.68213	-247.84093	948.80566	910.65308	65.80527	1022.67169	560.55151	-205.47922	994.23395	760.67957	-160.83720	1019.67065	492.10831	188.19688	577.43463	649.29773	-270.76627	518.61035	699.13605	168.25142	67.85111	625.55756	-467.91824	225.49651	340.36246	
293	2.920	-14.10117	1658.15857	755.19177							-147.93352	1680.21301	687.85065	34.05678	1486.82239	465.26868	-218.67087	1511.47900	631.48566	-20.64820	1442.83630	639.52576	-121.54219	1528.64978	501.14203	112.54982	1127.43591	375.43527	-343.93240	1177.00867	744.59784	165.56764	836.10706	475.09372	-241.86960	948.43988	915.48407	73.74261	1025.26892	568.13586	-198.93054	995.84955	768.74200	-153.79970	1021.13947	499.78107	193.24138	577.17181	653.40723	-254.61722	517.00330	716.53973	168.21393	68.14227	626.03802	-450.40118	237.97878	353.50089	
294	2.930	-8.24942	1660.80322	764.88123							-141.18102	1682.13501	696.39697	43.39691	1489.60986	474.28552	-210.61020	1514.37048	639.84888	-13.16512	1444.48438	648.94586	-112.71635	1531.38098	510.25638	120.80400	1129.63440	383.51291	-336.06219	1179.25854	751.66437	175.54074	839.69434	485.01328	-235.14088	947.20099	920.65582	82.04175	1028.04431	576.94727	-192.14497	997.76086	777.09613	-146.33879	1023.05200	509.71329	197.36266	577.64142	656.52301	-239.40225	516.54071	734.40417	167.83134	68.40268	626.52332	-431.30786	249.83870	366.41528	
295	2.940	-2.02848	1663.09338	774.68323							-135.04222	1684.28601	705.04077	51.69928	1492.02087	483.80811	-202.81479	1516.64453	647.90247	-5.04897	1446.33948	658.44653	-103.97182	1534.11462	519.03986	129.71634	1132.14124	392.29370	-328.19037	1181.16162	759.07495	184.72292	842.59229	496.37738	-229.04111	947.19653	924.84863	85.16351	1029.35693	584.35809	-185.70084	999.87817	783.11383	-140.19994	1025.41956	515.32922	200.88472	577.17694	660.17456	-225.08771	517.24695	752.15033	167.81256	68.49650	626.67780	-412.78403	259.10513	380.13879	
296	2.950	3.64769	1665.65259	784.73669							-128.76579	1685.50049	713.78235	61.11029	1494.92151	494.30682	-195.10916	1519.29639	656.36633	1.80153	1448.49976	667.72961	-95.41241	1537.14124	527.93146	138.46677	1134.57556	401.38065	-321.06226	1184.04736	766.33173	196.11824	847.23633	506.47293	-222.79153	947.25214	929.74341	92.59433	1032.57129	592.45441	-180.06825	1001.55005	790.96344	-133.49095	1028.06567	521.62067	203.66544	576.40741	663.15985	-210.53854	518.96844	769.46069	167.58621	68.82944	627.15198	-394.72491	267.76666	393.30246	
297	2.960	8.85821	1668.10693	794.65234							-122.37312	1686.81128	722.46924	69.48493	1496.51770	505.61847	-188.23073	1521.86792	664.73889	8.44177	1450.11316	676.99939	-87.08836	1539.42078	536.55280	147.74683	1137.45227	411.31891	-313.87082	1186.45630	772.78870	204.88272	850.48657	517.55756	-217.87044	947.96637	934.62238	98.54131	1034.56934	599.93384	-174.70129	1004.40704	798.35101	-127.75277	1029.66833	529.83722	206.48073	575.53571	666.10236	-197.16708	522.65515	787.27161	167.36627	69.32966	627.86407	-377.22394	274.64273	406.00153	
